<svg xmlns="http://www.w3.org/2000/svg" viewBox="0 0 64 64" role="img" aria-labelledby="title">
  <title id="title">MoneyFlow</title>
  <rect x="4" y="4" width="56" height="56" rx="16" fill="#0B6B3A"/>
  <g fill="none" stroke="#FFFFFF" stroke-linecap="round" stroke-linejoin="round">
    <path d="M32 50V17" stroke-width="4.2"/>
    <path d="M32 24C29 24 27 23 23 22" stroke-width="2.5"/>
    <path d="M32 24C35 24 37 23 41 22" stroke-width="2.5"/>
    <path d="M32 34C28 34 25 33 21 32" stroke-width="2.5"/>
    <path d="M32 34C36 34 39 33 43 32" stroke-width="2.5"/>
    <path d="M32 44C29 44 27 43 23 42" stroke-width="2.5"/>
    <path d="M32 44C35 44 37 43 41 42" stroke-width="2.5"/>
    <ellipse cx="23" cy="22" rx="5" ry="3.2" transform="rotate(24 23 22)" stroke-width="2.6"/>
    <ellipse cx="41" cy="22" rx="5" ry="3.2" transform="rotate(-24 41 22)" stroke-width="2.6"/>
    <ellipse cx="21" cy="32" rx="5" ry="3.2" transform="rotate(24 21 32)" stroke-width="2.6"/>
    <ellipse cx="43" cy="32" rx="5" ry="3.2" transform="rotate(-24 43 32)" stroke-width="2.6"/>
    <ellipse cx="23" cy="42" rx="5" ry="3.2" transform="rotate(24 23 42)" stroke-width="2.6"/>
    <ellipse cx="41" cy="42" rx="5" ry="3.2" transform="rotate(-24 41 42)" stroke-width="2.6"/>
  </g>
  <path d="M32 8.5C28.6 12 28.7 17.2 32 20.5C35.3 17.2 35.4 12 32 8.5Z" fill="#FFFFFF"/>
  <path d="M32 11.5V18" fill="none" stroke="#0B6B3A" stroke-width="1.25" stroke-linecap="round"/>
</svg>
